

==========================================
	Pre-Check Configurations
==========================================

File to be converted
--------------------
		Initializing File <strong>16193983839b17a.mp4</strong> and pre checking configurations...

System hardware Information
---------------------------
		Unable log System hardware information, plaese install "lshw" 

Temporary Uploading
-------------------
		File Uploaded to Temp directory successfully and video conversion file is being executed !

Video Conversion File Execution
-------------------------------
		Video Converson File executed successfully with Target File > !16193983839b17a.avi


==========================================
	Starting Conversion Log
==========================================

Getting Arguments
-----------------
		Filename : 16193983839b17a.avi
File directory : 2021/04/26
Log file : /var/www/vhosts/centx.app/httpdocs/files/logs/2021/04/26/16193983839b17a.log


Conversion queue
----------------
		Getting the file information from the queue for conversion

Conversion queue
----------------
		File has been moved from Temporary dir to Conversion Queue/var/www/vhosts/centx.app/httpdocs/files/temp/16193983839b17a.olo Orig_ /var/www/vhosts/centx.app/httpdocs/files/conversion_queue/16193983839b17a.avi

Parsing FFmpeg Configurations
-----------------------------
		<strong>use_video_rate</strong> : 1
<strong>use_video_bit_rate</strong> : 1
<strong>use_audio_rate</strong> : 1
<strong>use_audio_bit_rate</strong> : 1
<strong>use_audio_codec</strong> : 1
<strong>use_video_codec</strong> : 1
<strong>format</strong> : mp4
<strong>video_codec</strong> : libx264
<strong>audio_codec</strong> : libfdk_aac
<strong>audio_rate</strong> : 22050
<strong>audio_bitrate</strong> : 128000
<strong>video_rate</strong> : 
<strong>video_bitrate</strong> : 
<strong>video_bitrate_hd</strong> : 
<strong>normal_res</strong> : 
<strong>high_res</strong> : 
<strong>max_video_duration</strong> : 320
<strong>resize</strong> : max
<strong>outputPath</strong> : 2021/04/26/
<strong>cb_combo_res</strong> : 
<strong>gen_240</strong> : yes
<strong>gen_360</strong> : yes
<strong>gen_480</strong> : yes
<strong>gen_720</strong> : yes
<strong>gen_1080</strong> : yes


Starting Conversion
-------------------
		Started on 2021-04-26 00:53:08 - 2021 Apr 26

Checking File...
File : /var/www/vhosts/centx.app/httpdocs/files/conversion_queue/16193983839b17a.avi

File Exists____video
--------------------
		Yes

Preparing file...
-----------------
		<strong>format</strong> : avi
<strong>duration</strong> : 0.47
<strong>size</strong> : 54316
<strong>bitrate</strong> : 931140
<strong>video_width</strong> : 640
<strong>video_height</strong> : 400
<strong>video_wh_ratio</strong> : 1.6
<strong>video_codec</strong> : vp6
<strong>video_rate</strong> : 30.000300003
<strong>video_bitrate</strong> : 787503
<strong>video_color</strong> : N/A
<strong>audio_codec</strong> : adpcm_ima_wav
<strong>audio_bitrate</strong> : 386640
<strong>audio_rate</strong> : 48000
<strong>audio_channels</strong> : 2
<strong>path</strong> : /var/www/vhosts/centx.app/httpdocs/files/conversion_queue/16193983839b17a.avi
<strong>rotation</strong> : 0


Thumbs Generation ____adpcm_ima_wav
-----------------------------------
		Starting

Thumbs Files ____ /var/www/vhosts/centx.app/httpdocs/files/conversion_queue/16193983839b17a.avi Resolutions: 
-------------------------------------------------------------------------------------------------------------
		/var/www/vhosts/centx.app/httpdocs/files/conversion_queue/16193983839b17a.avi

==========================================
	Video Conversionvideo
==========================================

Getting Video Details Array: 
-----------------------------
		<strong>size</strong> : 54316
<strong>duration</strong> : 0
<strong>video_width</strong> : 640
<strong>video_height</strong> : 400
<strong>video_wh_ratio</strong> : 1.6
<strong>video_codec</strong> : vp6
<strong>audio_codec</strong> : adpcm
<strong>audio_rate</strong> : 48000
<strong>audio_channels</strong> : stereo


Getting out : 
--------------
		ffmpeg version 3.4.8 Copyright (c) 2000-2020 the FFmpeg developers
  built with gcc 4.8.5 (GCC) 20150623 (Red Hat 4.8.5-39)
  configuration: --prefix=/usr --bindir=/usr/bin --datadir=/usr/share/ffmpeg --docdir=/usr/share/doc/ffmpeg --incdir=/usr/include/ffmpeg --libdir=/usr/lib64 --mandir=/usr/share/man --arch=x86_64 --optflags='-O2 -g -pipe -Wall -Wp,-D_FORTIFY_SOURCE=2 -fexceptions -fstack-protector-strong --param=ssp-buffer-size=4 -grecord-gcc-switches -m64 -mtune=generic' --extra-ldflags='-Wl,-z,relro ' --extra-cflags=' ' --enable-libopencore-amrnb --enable-libopencore-amrwb --enable-libvo-amrwbenc --enable-version3 --enable-bzlib --disable-crystalhd --enable-fontconfig --enable-gcrypt --enable-gnutls --enable-ladspa --enable-libass --enable-libbluray --enable-libcdio --enable-libdrm --enable-indev=jack --enable-libfreetype --enable-libfribidi --enable-libgsm --enable-libmp3lame --enable-nvenc --enable-openal --enable-opencl --enable-opengl --enable-libopenjpeg --enable-libopus --disable-encoder=libopus --enable-libpulse --enable-librsvg --enable-libsoxr --enable-libspeex --enable-libtheora --enable-libvorbis --enable-libv4l2 --enable-libvidstab --enable-libvpx --enable-libx264 --enable-libx265 --enable-libxvid --enable-libzvbi --enable-avfilter --enable-avresample --enable-libmodplug --enable-postproc --enable-pthreads --disable-static --enable-shared --enable-gpl --disable-debug --disable-stripping --shlibdir=/usr/lib64 --enable-libmfx --enable-runtime-cpudetect
  libavutil      55. 78.100 / 55. 78.100
  libavcodec     57.107.100 / 57.107.100
  libavformat    57. 83.100 / 57. 83.100
  libavdevice    57. 10.100 / 57. 10.100
  libavfilter     6.107.100 /  6.107.100
  libavresample   3.  7.  0 /  3.  7.  0
  libswscale      4.  8.100 /  4.  8.100
  libswresample   2.  9.100 /  2.  9.100
  libpostproc    54.  7.100 / 54.  7.100
Guessed Channel Layout for Input Stream #0.1 : stereo
Input #0, avi, from '/var/www/vhosts/centx.app/httpdocs/files/conversion_queue/16193983839b17a.avi':
  Duration: 00:00:00.47, start: 0.000000, bitrate: 931 kb/s
    Stream #0:0: Video: vp6 (VP60 / 0x30365056), yuv420p, 640x400, 787 kb/s, 30 fps, 30 tbr, 30 tbn, 30 tbc
    Stream #0:1: Audio: adpcm_ima_wav ([17][0][0][0] / 0x0011), 48000 Hz, stereo, s16p, 384 kb/s
Output #0, null, to '/dev/null':
  Metadata:
    encoder         : Lavf57.83.100
    Stream #0:0: Video: vp6 (VP60 / 0x30365056), yuv420p, 640x400, q=2-31, 787 kb/s, 30 fps, 30 tbr, 30 tbn, 30 tbc
    Stream #0:1: Audio: adpcm_ima_wav ([17][0][0][0] / 0x0011), 48000 Hz, stereo, s16p, 384 kb/s
Stream mapping:
  Stream #0:0 -> #0:0 (copy)
  Stream #0:1 -> #0:1 (copy)
Press [q] to stop, [?] for help
frame=    6 fps=0.0 q=-1.0 Lsize=N/A time=00:00:00.46 bitrate=N/A speed=2.85e+03x    
video:42kB audio:9kB subtitle:0kB other streams:0kB global headers:0kB muxing overhead: unknown


Low SD second Execute Full Command : 
-------------------------------------
		
======Converting Video=========


=======Low Resolution Conversion=======


 Sarting : Generating Low resolution video @ 2021-04-26 00:53:09 

 Converting Video SD File  

 Command : /bin/ffmpeg -i /var/www/vhosts/centx.app/httpdocs/files/conversion_queue/16193983839b17a.avi -vcodec libx264 -acodec libfdk_aac -s 640x400 -preset medium -f mp4 -b:a 128000 -minrate 128000 -maxrate 128000 -ar 22050 /var/www/vhosts/centx.app/httpdocs/files/videos/2021/04/26//16193983839b17a-sd.mp4 

 ffmpeg output : ffmpeg version 3.4.8 Copyright (c) 2000-2020 the FFmpeg developers
  built with gcc 4.8.5 (GCC) 20150623 (Red Hat 4.8.5-39)
  configuration: --prefix=/usr --bindir=/usr/bin --datadir=/usr/share/ffmpeg --docdir=/usr/share/doc/ffmpeg --incdir=/usr/include/ffmpeg --libdir=/usr/lib64 --mandir=/usr/share/man --arch=x86_64 --optflags='-O2 -g -pipe -Wall -Wp,-D_FORTIFY_SOURCE=2 -fexceptions -fstack-protector-strong --param=ssp-buffer-size=4 -grecord-gcc-switches -m64 -mtune=generic' --extra-ldflags='-Wl,-z,relro ' --extra-cflags=' ' --enable-libopencore-amrnb --enable-libopencore-amrwb --enable-libvo-amrwbenc --enable-version3 --enable-bzlib --disable-crystalhd --enable-fontconfig --enable-gcrypt --enable-gnutls --enable-ladspa --enable-libass --enable-libbluray --enable-libcdio --enable-libdrm --enable-indev=jack --enable-libfreetype --enable-libfribidi --enable-libgsm --enable-libmp3lame --enable-nvenc --enable-openal --enable-opencl --enable-opengl --enable-libopenjpeg --enable-libopus --disable-encoder=libopus --enable-libpulse --enable-librsvg --enable-libsoxr --enable-libspeex --enable-libtheora --enable-libvorbis --enable-libv4l2 --enable-libvidstab --enable-libvpx --enable-libx264 --enable-libx265 --enable-libxvid --enable-libzvbi --enable-avfilter --enable-avresample --enable-libmodplug --enable-postproc --enable-pthreads --disable-static --enable-shared --enable-gpl --disable-debug --disable-stripping --shlibdir=/usr/lib64 --enable-libmfx --enable-runtime-cpudetect
  libavutil      55. 78.100 / 55. 78.100
  libavcodec     57.107.100 / 57.107.100
  libavformat    57. 83.100 / 57. 83.100
  libavdevice    57. 10.100 / 57. 10.100
  libavfilter     6.107.100 /  6.107.100
  libavresample   3.  7.  0 /  3.  7.  0
  libswscale      4.  8.100 /  4.  8.100
  libswresample   2.  9.100 /  2.  9.100
  libpostproc    54.  7.100 / 54.  7.100
Guessed Channel Layout for Input Stream #0.1 : stereo
Input #0, avi, from '/var/www/vhosts/centx.app/httpdocs/files/conversion_queue/16193983839b17a.avi':
  Duration: 00:00:00.47, start: 0.000000, bitrate: 931 kb/s
    Stream #0:0: Video: vp6 (VP60 / 0x30365056), yuv420p, 640x400, 787 kb/s, 30 fps, 30 tbr, 30 tbn, 30 tbc
    Stream #0:1: Audio: adpcm_ima_wav ([17][0][0][0] / 0x0011), 48000 Hz, stereo, s16p, 384 kb/s
Unknown encoder 'libfdk_aac'
 


Conversion Completed___ Output File
-----------------------------------
		

Time Took : 0.8016 seconds

conversion_status : failed 
